<svg xmlns="http://www.w3.org/2000/svg" viewBox="0 0 100 100">
  <g transform="translate(13.9066, 0)" fill="#c8841d">
    <path d="M72.18672,50.00114a36.08963,36.08963,0,0,0-18.06656-31.223l3.31844-5.748H14.7495l3.31817,5.74715A36.01215,36.01215,0,0,0,18.06739,81.223L14.7495,86.96989H57.4386l-3.31817-5.74743A36.08565,36.08565,0,0,0,72.18672,50.00114ZM29.5788,18.4849H42.609V31.51512H29.5788Zm6.51511,62.52576A6.51511,6.51511,0,1,1,42.609,74.49555,6.51513,6.51513,0,0,1,36.09391,81.01066ZM49.601,73.39511,36.09391,50,22.58652,73.39566a26.98473,26.98473,0,0,1,0-46.79124L36.09391,50,49.601,26.605a26.98461,26.98461,0,0,1,0,46.79014Z"/>
    <circle cx="36.09391" cy="6.5151" r="6.5151"/>
    <rect x="29.57877" y="86.9698" width="13.0302" height="13.0302"/>
  </g>
</svg>
